<svg id="Essentials" xmlns="http://www.w3.org/2000/svg" viewBox="0 0 48.34 55"><defs><style>.cls-1{fill:none;stroke:#1a1718;stroke-linecap:round;stroke-linejoin:round;stroke-width:2px;}</style></defs><title>bell-Icon</title><path class="cls-1" d="M256.49,4010.64c10.7,1.85,16.66,1.85,27.36,0l9.49-1.64h0a23.49,23.49,0,0,1-7.32-17v-9a13.61,13.61,0,0,0-7.95-12.3,19,19,0,0,0-15.81,0c-4,1.82-8.23,6.25-8.27,12.29v9a23.19,23.19,0,0,1-7,17h0Z" transform="translate(-246 -3963)"/><path class="cls-1" d="M259,3983c0-4.17,3.39-6.84,5.37-7.75a14,14,0,0,1,5.8-1.26,14.12,14.12,0,0,1,5.83,1.26" transform="translate(-246 -3963)"/><path class="cls-1" d="M274,3969.38V3968a4,4,0,0,0-8,0v1.45A19.07,19.07,0,0,1,274,3969.38Z" transform="translate(-246 -3963)"/><path class="cls-1" d="M261.91,4011.46a9,9,0,0,0,16.56,0A61.09,61.09,0,0,1,261.91,4011.46Z" transform="translate(-246 -3963)"/></svg>