<svg id="Layer_1" data-name="Layer 1" xmlns="http://www.w3.org/2000/svg" xmlns:xlink="http://www.w3.org/1999/xlink" viewBox="0 0 835.34 236.97"><defs><style>.cls-1{fill:url(#linear-gradient);}.cls-2{fill:url(#linear-gradient-2);}.cls-3{fill:#fff;}</style><linearGradient id="linear-gradient" x1="314.98" y1="206" x2="314.98" y2="205" gradientTransform="matrix(600.34, 0, 0, -236.97, -188505.84, 48816.1)" gradientUnits="userSpaceOnUse"><stop offset="0" stop-color="#0091e6"/><stop offset="1" stop-color="#0079bf"/></linearGradient><linearGradient id="linear-gradient-2" x1="313.93" y1="206.05" x2="313.93" y2="205.05" gradientTransform="matrix(200, 0, 0, -200, -62685, 41245)" xlink:href="#linear-gradient"/></defs><title>Trello-logo</title><g id="Page-1"><g id="Original-Assets"><g id="Group"><g id="Trello-Logo"><g id="Trello-Logo---Blue"><g id="Logo"><path id="Type" class="cls-1" d="M723.29,178.59c-12.77,5.2-22.85,23.18-38.18,33.4a5.06,5.06,0,0,1-2.53,1c-1.27,0-2.85-1.27-2.85-7,0-19.64,6.34-29.15,11.72-43.08,18.69-48.47,50.69-90,79.2-135.27a21,21,0,0,0,3.48-11.4c0-3.48-1.27-6.34-2.85-9.82C770,3.53,764.32,1,758,1c-3.48,0-6.65.32-10.77.32-14.89,0-18.06,21.86-21.54,27.56-23.76,40.23-51,90-64.94,125.14-3.06,7.88-6.36,15.77-8.87,23.86-13.77,4-24.09,23.36-40.24,34.12a5.06,5.06,0,0,1-2.53,1c-1.27,0-2.85-1.27-2.85-7,0-19.64,6.34-29.15,11.72-43.08,18.69-48.47,50.69-90,79.2-135.27a21,21,0,0,0,3.48-11.4c0-3.48-1.27-6.34-2.85-9.82-1.27-2.85-7-5.39-13.31-5.39-3.48,0-6.65.32-10.77.32-14.89,0-18.06,21.86-21.54,27.56-23.76,40.23-51,90-64.94,125.14-1.11,2.86-2.25,5.72-3.37,8.58q-.52.28-1.06.6c-16.16,9.5-29.78,26.29-49.42,37.7-3.8,2.22-15.52,10.45-25,10.45a13.1,13.1,0,0,1-6-1.58c-2.85-1.27-5.7-7.29-5.7-9.19,0-1.58.32-1.9,3.48-3.8C528,180,550.8,155.92,570.44,131.84c7.29-8.87,16.79-26.29,16.79-39,0-8.24-2.85-17.74-12.67-21.23a65.4,65.4,0,0,0-21.23-3.8,49.85,49.85,0,0,0-36.12,14.89c-7.1,7.57-14,15.35-20.34,23.4-6.66-5.75-16.06-8.2-25-8.2-10.45,0-30.1,13-40.23,20.59-1.58,1.27-2.53,1.9-3.17,1.9-.32,0-.63-.32-.63-1a51,51,0,0,0,.63-8.24c0-4.44-1-10.14-5.07-17.11-1-1.58-6.65-5.07-13.62-5.07-8.55,0-16.47,4.12-16.47,8.55,0,3.17,2.85,4.44,2.85,7.29,0,1.58-1.27,8.87-3.17,15.84C387.64,141,381,161,374,180.94c-3.8,11.09-16.47,20.91-16.47,32.95,0,3.8,2.53,8.87,6,12.67,5.7,6.34,9.19,8.55,14.26,8.55a10.56,10.56,0,0,0,7-2.53c4.75-4.12,7.29-8.24,8.55-13.94,8.24-37.38,32-62.73,58.29-79.52,8.87-5.7,20.91-11.72,22.49-11.72a30.52,30.52,0,0,1,6.72,1.48A154.62,154.62,0,0,0,463.68,167a46,46,0,0,0-1.9,13,68.51,68.51,0,0,0,4.12,22.18c3.48,10.14,9.19,19,17.11,23.13,14.57,7.6,25,11.72,34.53,11.72a26.09,26.09,0,0,0,13.94-3.48c20.82-11.78,33.59-20.72,42.81-28.66.25,8,1.84,12.51,7.56,18.52s14.57,11.4,26.29,13.94a34.91,34.91,0,0,0,5.7.63c13.41,0,26.32-10.9,36.27-21.71a28.64,28.64,0,0,0,5.23,7.13c5.7,6,14.57,11.4,26.29,13.94a34.91,34.91,0,0,0,5.7.63c15.71,0,30.73-15,41.11-27.2,3.46,7.16,13.14,14.24,24.78,19.91a24.2,24.2,0,0,0,10.45,2.53c13.62,0,23.44-11.09,31-19.32,19.64-21.54,30.41-48.15,38.65-81.73.63-2.53,1.58-3.48,2.85-3.48A81,81,0,0,0,848,128c8.55-1.27,15.21-4.12,23.13-5.39,4.75-1,4.12-2.53,8.55-4.12,3.17-1.27,5.7-2.53,5.7-5.7,0-5.39-9.82-11.09-24.71-11.09-11.72,0-18.69,1-23.44,1-7.29,0-9.19-2.22-13.94-14.57h0c-1-2.53-1.9-3.8-4.75-6.34a33.24,33.24,0,0,0-21.54-7.6c-15.84,0-29.46,16.16-39,29.78-2.22,3.17-5.39,5.7-7.6,9.19C737.33,132.72,724.83,154.8,723.29,178.59ZM318.26,70.7c7.92,0,12.36-.63,13.31-.63s1.58.32,1.58,1.27c0,.63-.32,1.58-2.53,6.34-19.32,41.5-32.63,83.64-44.35,130.2A51.43,51.43,0,0,0,285,218.64c0,4.44,1.27,9.19,5.7,11.72,8.55,5.07,15.52,7.29,20.28,7.29,7,0,10.45-4.44,10.45-11.72a105.29,105.29,0,0,1,1.27-18.06c8.87-46.57,22.18-83,42.77-121,9.82-18.06,11.09-19,11.09-20.59a5.06,5.06,0,0,0-1-2.53A198.9,198.9,0,0,1,417.42,59c1.58,0,7.92,2.22,8.87,3.17,2.22,2.22,4.44,4.44,8.24,4.44,3.17,0,8.55-2.22,10.45-3.48,4.44-3.17,6.65-6.65,6.65-12.36,0-5.39-20-18.69-33.9-18.69a242.21,242.21,0,0,0-47.2,5.07c-6.34,1.27-29.15,4.75-45.62,4.75-15.84,0-14.89-2.22-21.54-2.22-3.8,0-5.7,1.9-7.29,3.48s-2.53,7.92-2.53,13.62c0,2.85,0,5.07,1.58,7,4.75,5.7,13.94,7,23.13,7ZM553,96.36c0,2.85-1,4.75-4.75,10.77s-2.22,6-7,12.36c-9.19,12.36-20.59,24.71-35.48,38.33-4.12,3.8-4.75,3.8-5.39,3.8a1,1,0,0,1-1-1c0-1,.32-2.22,3.48-8.87,9.82-20.59,21.86-34.21,35.16-47.52,7.29-7.29,11.72-9.82,13.31-9.82,1,0,1.58.32,1.58,1.9Zm243.62,8.24q.48,0,1,1a6.83,6.83,0,0,0,2.53,3.17c1.27,1,1.27,5.39,1.27,8.87,0,30.73-17.42,56.07-34.53,81.73-3.8,5.7-6,6.65-7.92,6.65-1.58,0-4.12-4.12-5.07-6.65a30.59,30.59,0,0,1-1.58-9.19c0-24.71,23.44-61.46,39-81.73,2.53-3.48,4.44-3.8,5.39-3.8Z" transform="translate(-50 -1)"/><g id="Mark"><rect id="Board" class="cls-2" y="35" width="200" height="200" rx="25" ry="25"/><rect id="Right-List" class="cls-3" x="113" y="61" width="61" height="87.5" rx="12" ry="12"/><rect id="Left-List" class="cls-3" x="26" y="61" width="61" height="137.5" rx="12" ry="12"/></g></g></g></g></g></g></g></svg>