<?xml version="1.0" encoding="utf-8"?>
<!-- Generator: Adobe Illustrator 21.1.0, SVG Export Plug-In . SVG Version: 6.00 Build 0)  -->
<svg version="1.1" id="Isolation_Mode" xmlns="http://www.w3.org/2000/svg" xmlns:xlink="http://www.w3.org/1999/xlink" x="0px"
	 y="0px" viewBox="0 0 3000 14643" style="enable-background:new 0 0 3000 14643;" xml:space="preserve">
<style type="text/css">
	.st0{fill:#231F20;}
</style>
<path class="st0" d="M153.9,3590.6c-2.6-1.5-5.9-3.1-8.9-4.3v-3.8c0.8-0.6,2.1-2.2,2.3-6c1-0.6,1.6-2.1,1.6-3.5
	c0-1.3-0.5-2.3-1.3-2.9c0.6-1.3,1.4-3.5,0.8-5.9c-0.8-3.4-5.1-4.5-8.4-4.5c-3.1,0-6.8,1-8.1,3.7c-1.5-0.1-2.3,0.5-2.6,1
	c-1,1.5,0.1,4,0.9,5.7c0,0,0,0,0,0c-0.4,0.2-0.7,0.5-0.9,0.9c-0.4,0.6-0.6,1.4-0.6,2.3c0,1.6,0.8,2.9,1.9,3.3c0.2,3.8,1.7,5.4,2.6,6
	v3.7c-3,1.2-6.2,2.8-8.9,4.3c-5.1,2.9-5.1,3.8-5.1,4.4v6c0,0.6,0.4,1,1,1h38c0.6,0,1-0.4,1-1v-6C159,3594.4,159,3593.5,153.9,3590.6
	z"/>
</svg>
