<svg id="Isolation_Mode" data-name="Isolation Mode" xmlns="http://www.w3.org/2000/svg" viewBox="0 0 40 42.35"><defs><style>.cls-1{fill:#82868b;}</style></defs><title>username</title><path class="cls-1" d="M153.85,3590.6a84.73,84.73,0,0,0-8.85-4.27v-3.77c.83-.64,2.12-2.24,2.26-6a4.16,4.16,0,0,0,1.59-3.54,3.27,3.27,0,0,0-1.29-2.87,9.25,9.25,0,0,0,.8-5.92c-.84-3.35-5.07-4.54-8.45-4.54-3.07,0-6.85,1-8.14,3.68a2.64,2.64,0,0,0-2.62,1c-1,1.53.13,4,.87,5.7v0a2.81,2.81,0,0,0-.93.89,4.16,4.16,0,0,0-.64,2.29,3.41,3.41,0,0,0,1.91,3.34c.19,3.78,1.71,5.37,2.63,6v3.73a84.73,84.73,0,0,0-8.86,4.27c-5.14,2.9-5.14,3.84-5.14,4.4v6a1,1,0,0,0,1,1h38a1,1,0,0,0,1-1v-6C159,3594.44,159,3593.5,153.85,3590.6Z" transform="translate(-119 -3559.65)"/></svg>